<?xml version="1.0" standalone="no"?>
<!DOCTYPE svg PUBLIC "-//W3C//DTD SVG 20010904//EN"
 "http://www.w3.org/TR/2001/REC-SVG-20010904/DTD/svg10.dtd">
<svg version="1.0" xmlns="http://www.w3.org/2000/svg"
 width="256.000000pt" height="256.000000pt" viewBox="0 0 256.000000 256.000000"
 preserveAspectRatio="xMidYMid meet">

<g transform="translate(0.000000,256.000000) scale(0.100000,-0.100000)"
fill="#000000" stroke="none">
<path d="M1121 2405 c-78 -22 -166 -72 -207 -118 -99 -109 -126 -289 -80 -517
9 -41 25 -120 36 -175 24 -120 81 -245 141 -310 38 -41 43 -53 47 -104 8 -111
-22 -136 -233 -196 -328 -92 -543 -204 -609 -317 -16 -29 -35 -95 -56 -198
-17 -85 -42 -199 -55 -252 -28 -108 -30 -139 -13 -156 9 -9 287 -12 1189 -12
1057 0 1179 2 1193 16 9 8 16 19 16 24 0 4 -15 72 -34 151 -19 79 -45 196 -57
259 -12 63 -29 131 -39 151 -64 125 -298 250 -639 340 -177 47 -211 77 -211
182 0 49 4 59 50 115 70 88 104 166 144 332 81 336 68 545 -42 658 -29 29 -64
54 -87 61 -22 7 -76 27 -120 43 -98 38 -245 48 -334 23z m367 -437 c49 -52
132 -198 132 -235 0 -48 -26 -162 -55 -239 -57 -152 -152 -227 -285 -226 -119
0 -196 54 -260 182 -31 62 -64 183 -75 281 l-7 56 79 6 c128 9 270 71 372 164
25 23 51 42 57 43 5 0 24 -15 42 -32z m-78 -828 c0 -81 65 -168 153 -205 l38
-16 -18 -30 c-24 -41 -82 -93 -135 -120 -51 -27 -181 -37 -243 -20 -61 16
-130 64 -169 118 -38 51 -44 73 -22 73 7 0 33 15 58 34 50 38 88 111 88 168
l0 33 125 0 125 0 0 -35z m53 -531 c8 -13 -16 -62 -115 -230 -70 -118 -133
-218 -142 -224 -19 -12 -49 4 -54 28 -2 9 54 113 124 232 116 198 129 216 152
213 14 -2 30 -10 35 -19z m-355 -31 c27 -27 11 -53 -83 -130 l-94 -76 94 -72
c101 -77 118 -107 74 -131 -18 -9 -35 0 -137 78 -128 99 -142 114 -126 141 15
24 233 202 248 202 6 0 17 -5 24 -12z m550 -85 c75 -61 118 -104 120 -118 3
-24 -27 -52 -170 -159 -66 -50 -80 -56 -97 -46 -44 23 -27 53 74 129 l95 72
-92 77 c-51 43 -94 86 -96 95 -4 22 15 47 35 47 8 0 67 -43 131 -97z"/>
</g>
</svg>
