<?xml version="1.0" standalone="no"?>
<!DOCTYPE svg PUBLIC "-//W3C//DTD SVG 20010904//EN"
 "http://www.w3.org/TR/2001/REC-SVG-20010904/DTD/svg10.dtd">
<svg version="1.0" xmlns="http://www.w3.org/2000/svg"
 width="512.000000pt" height="512.000000pt" viewBox="0 0 512.000000 512.000000"
 preserveAspectRatio="xMidYMid meet">

<g transform="translate(0.000000,512.000000) scale(0.100000,-0.100000)"
fill="#000000" stroke="none">
<path d="M2425 4700 c-194 -31 -379 -150 -457 -295 -41 -78 -88 -281 -88 -385
0 -29 -5 -42 -20 -50 -28 -15 -43 -83 -37 -165 7 -97 34 -172 78 -216 21 -21
55 -76 77 -123 100 -213 252 -375 415 -444 84 -35 225 -37 305 -4 170 71 324
234 427 456 24 51 51 96 59 99 26 10 76 128 84 201 10 79 0 161 -23 186 -10
11 -15 38 -15 87 0 326 -166 561 -447 634 -90 23 -268 33 -358 19z m-75 -565
c96 -26 205 -30 304 -10 111 22 175 16 255 -24 63 -32 68 -31 51 13 -13 35 3
33 35 -5 33 -41 58 -90 81 -161 13 -42 23 -58 36 -58 9 0 25 -11 34 -25 38
-58 -9 -243 -65 -255 -19 -4 -31 -22 -56 -82 -91 -216 -258 -377 -422 -408
-205 -38 -427 149 -552 463 -7 17 -18 27 -31 27 -71 0 -107 243 -41 276 17 9
30 31 44 74 14 43 35 78 66 112 70 75 147 94 261 63z"/>
<path d="M1902 2989 c-261 -20 -388 -76 -497 -221 -58 -77 -88 -135 -135 -258
l-36 -95 -180 -5 c-188 -5 -200 -8 -245 -57 -59 -64 -66 -17 125 -917 96 -451
177 -838 180 -859 9 -49 72 -113 118 -122 18 -3 627 -4 1353 -3 l1320 3 33 23
c48 35 60 66 102 271 21 102 63 303 94 446 230 1079 225 1053 215 1089 -11 39
-49 90 -83 109 -13 8 -86 14 -200 17 l-180 5 -36 95 c-47 123 -77 181 -135
258 -81 108 -177 168 -314 197 -103 22 -345 39 -350 24 -15 -46 -153 -221
-312 -397 l-56 -62 -31 118 c-30 114 -30 118 -12 137 17 18 40 83 40 113 0 9
-31 12 -121 12 l-121 0 7 -42 c8 -48 17 -69 38 -87 13 -10 10 -28 -16 -132
l-30 -121 -61 68 c-118 130 -245 289 -278 346 -37 65 -20 61 -196 47z m2302
-609 c56 -12 87 -39 115 -94 l24 -49 -177 -816 c-99 -455 -186 -834 -197 -857
-13 -27 -35 -49 -62 -65 l-42 -24 -1305 0 c-1222 0 -1307 1 -1337 18 -43 23
-81 65 -87 97 -3 14 -84 386 -181 827 -96 441 -175 810 -175 820 0 27 41 93
71 116 15 10 42 23 60 27 48 11 3245 12 3293 0z"/>
<path d="M2524 1500 c-49 -20 -70 -93 -39 -136 23 -34 69 -49 105 -34 77 32
82 128 10 165 -32 17 -45 18 -76 5z"/>
<path d="M1072 377 c-28 -29 -28 -57 -1 -91 l20 -26 1469 0 1469 0 20 26 c26
34 26 54 0 88 l-20 26 -1468 0 -1468 0 -21 -23z"/>
</g>
</svg>
